<?xml version="1.0" standalone="no"?>
<!DOCTYPE svg PUBLIC "-//W3C//DTD SVG 20010904//EN"
 "http://www.w3.org/TR/2001/REC-SVG-20010904/DTD/svg10.dtd">
<svg version="1.0" xmlns="http://www.w3.org/2000/svg"
 width="700.000000pt" height="700.000000pt" viewBox="0 0 700.000000 700.000000"
 preserveAspectRatio="xMidYMid meet">
<metadata>
Created by potrace 1.14, written by Peter Selinger 2001-2017
</metadata>
<g transform="translate(0.000000,700.000000) scale(0.100000,-0.100000)"
fill="#000000" stroke="none">
<path d="M2815 6798 c-59 -8 -215 -53 -265 -75 -194 -85 -330 -164 -458 -266
-148 -117 -241 -223 -305 -347 -41 -79 -45 -83 -81 -87 -103 -10 -254 -100
-375 -223 -314 -317 -461 -764 -367 -1115 5 -17 -5 -25 -54 -48 -227 -107
-408 -447 -475 -892 -52 -347 -3 -687 115 -800 l28 -27 -39 -51 c-187 -248
-198 -646 -26 -982 123 -240 331 -419 588 -504 l67 -22 22 -62 c143 -399 458
-734 806 -857 101 -35 126 -40 243 -47 86 -5 98 -8 140 -38 92 -66 225 -125
314 -139 20 -3 54 -9 75 -12 58 -10 200 -10 281 -1 115 13 224 59 287 121 68
68 126 198 140 319 4 29 8 59 10 67 1 8 3 34 3 58 1 23 5 42 9 42 5 0 9 -6 9
-12 1 -48 15 -159 29 -220 40 -180 131 -292 279 -343 125 -44 345 -52 492 -20
107 24 193 61 291 126 69 45 76 48 149 50 425 12 857 374 1055 884 11 28 22
58 25 67 3 10 31 25 72 39 272 88 485 281 611 552 71 152 94 267 95 457 0 199
-40 333 -140 469 l-43 59 30 28 c132 126 172 533 92 921 -63 304 -179 543
-335 687 -47 44 -138 101 -176 111 -1 1 6 40 16 88 67 332 -85 749 -382 1050
-116 117 -270 209 -370 221 -18 2 -35 4 -39 5 -3 0 -18 26 -32 57 -108 235
-425 496 -771 634 -44 18 -84 33 -90 35 -5 1 -17 5 -25 8 -60 22 -177 40 -260
41 -212 0 -367 -50 -471 -154 -45 -45 -99 -139 -102 -179 -2 -27 -17 -28 -17
0 0 38 -52 131 -101 180 -51 51 -155 109 -229 127 -103 25 -254 34 -345 20z
m692 -5958 c1 -11 -2 -20 -7 -20 -6 0 -7 17 -1 38 3 8 7 -1 8 -18z"/>
</g>
</svg>
